<svg width="27" height="42" viewBox="0 0 27 42" fill="none" xmlns="http://www.w3.org/2000/svg">
<g clip-path="url(#clip0_35_5)">
<path d="M22.0176 18.1434C22.0176 18.1434 19.3699 11.6545 11.089 9.49598C11.089 9.49598 9.57741 17.1734 17.6056 21.6434C17.6056 21.6434 20.7381 20.7183 20.9532 20.6467C21.1682 20.575 22.0176 18.1434 22.0176 18.1434Z" fill="#00FCBB"/>
<path d="M0 36.5599V38.0568C0 39.726 1.35362 41.0784 3.02438 41.0784H18.4987C22.8111 41.0784 26.3203 37.61 26.3664 33.3027L26.5706 14.5317L0.743641 35.0205C0.273397 35.3932 0 35.9602 0 36.5599ZM16.4172 33.7397C15.224 33.7397 14.2568 32.7734 14.2568 31.5812C14.2568 30.3891 15.224 29.4239 16.4172 29.4239C17.6104 29.4239 18.5776 30.3903 18.5776 31.5812C18.5776 32.7722 17.6104 33.7397 16.4172 33.7397Z" fill="#00FCBB"/>
<path d="M26.5706 14.5317V0C26.5706 0 14.2981 8.15814 22.0176 18.1434L26.5706 14.5317Z" fill="#00FCBB"/>
</g>
<defs>
<clipPath id="clip0_35_5">
<rect width="26.5706" height="41.0784" fill="white"/>
</clipPath>
</defs>
</svg>
