<svg width="171" height="42" viewBox="0 0 171 42" fill="none" xmlns="http://www.w3.org/2000/svg">
<g clip-path="url(#clip0_35_4)">
<path d="M22.0176 18.1434C22.0176 18.1434 19.3699 11.6545 11.089 9.49598C11.089 9.49598 9.57741 17.1734 17.6056 21.6434C17.6056 21.6434 20.7381 20.7183 20.9532 20.6467C21.1682 20.575 22.0176 18.1434 22.0176 18.1434Z" fill="#00FCBB"/>
<path d="M0 36.5599V38.0568C0 39.726 1.35362 41.0784 3.02438 41.0784H18.4987C22.8111 41.0784 26.3203 37.61 26.3664 33.3027L26.5706 14.5317L0.743641 35.0205C0.273397 35.3932 0 35.9602 0 36.5599ZM16.4172 33.7397C15.224 33.7397 14.2568 32.7734 14.2568 31.5812C14.2568 30.3891 15.224 29.4239 16.4172 29.4239C17.6104 29.4239 18.5776 30.3903 18.5776 31.5812C18.5776 32.7722 17.6104 33.7397 16.4172 33.7397Z" fill="#00FCBB"/>
<path d="M26.5706 14.5317V0C26.5706 0 14.2981 8.15814 22.0176 18.1434L26.5706 14.5317Z" fill="#00FCBB"/>
</g>
<path d="M46.8721 34.0238V14.1755H52.3691V19.7832L51.5943 18.1599C52.1846 16.758 53.1315 15.7004 54.4351 14.9872C55.7386 14.2493 57.325 13.8804 59.1943 13.8804V19.1929C58.9483 19.1683 58.7269 19.156 58.5302 19.156C58.3334 19.1314 58.1244 19.1191 57.903 19.1191C56.3289 19.1191 55.05 19.5742 54.0662 20.4842C53.1069 21.3696 52.6273 22.7592 52.6273 24.6531V34.0238H46.8721Z" fill="white"/>
<path d="M71.1789 34.319C69.0637 34.319 67.1822 33.8763 65.5343 32.9908C63.9111 32.1054 62.6198 30.9002 61.6606 29.3753C60.726 27.8258 60.2587 26.0673 60.2587 24.0997C60.2587 22.1075 60.726 20.3489 61.6606 18.824C62.6198 17.2745 63.9111 16.0693 65.5343 15.2085C67.1822 14.3231 69.0637 13.8804 71.1789 13.8804C73.2695 13.8804 75.1388 14.3231 76.7866 15.2085C78.4345 16.0693 79.7258 17.2622 80.6604 18.7871C81.595 20.312 82.0623 22.0829 82.0623 24.0997C82.0623 26.0673 81.595 27.8258 80.6604 29.3753C79.7258 30.9002 78.4345 32.1054 76.7866 32.9908C75.1388 33.8763 73.2695 34.319 71.1789 34.319ZM71.1789 29.5967C72.1381 29.5967 72.999 29.3753 73.7614 28.9326C74.5239 28.4899 75.1265 27.8627 75.5692 27.0511C76.0119 26.2149 76.2332 25.231 76.2332 24.0997C76.2332 22.9437 76.0119 21.9599 75.5692 21.1482C75.1265 20.3366 74.5239 19.7094 73.7614 19.2667C72.999 18.824 72.1381 18.6026 71.1789 18.6026C70.2197 18.6026 69.3589 18.824 68.5964 19.2667C67.834 19.7094 67.2191 20.3366 66.7518 21.1482C66.3091 21.9599 66.0877 22.9437 66.0877 24.0997C66.0877 25.231 66.3091 26.2149 66.7518 27.0511C67.2191 27.8627 67.834 28.4899 68.5964 28.9326C69.3589 29.3753 70.2197 29.5967 71.1789 29.5967Z" fill="white"/>
<path d="M94.6159 34.319C92.5007 34.319 90.6192 33.8763 88.9713 32.9908C87.3481 32.1054 86.0568 30.9002 85.0976 29.3753C84.163 27.8258 83.6957 26.0673 83.6957 24.0997C83.6957 22.1075 84.163 20.3489 85.0976 18.824C86.0568 17.2745 87.3481 16.0693 88.9713 15.2085C90.6192 14.3231 92.5007 13.8804 94.6159 13.8804C96.7065 13.8804 98.5758 14.3231 100.224 15.2085C101.872 16.0693 103.163 17.2622 104.097 18.7871C105.032 20.312 105.499 22.0829 105.499 24.0997C105.499 26.0673 105.032 27.8258 104.097 29.3753C103.163 30.9002 101.872 32.1054 100.224 32.9908C98.5758 33.8763 96.7065 34.319 94.6159 34.319ZM94.6159 29.5967C95.5751 29.5967 96.436 29.3753 97.1984 28.9326C97.9609 28.4899 98.5635 27.8627 99.0062 27.0511C99.4489 26.2149 99.6702 25.231 99.6702 24.0997C99.6702 22.9437 99.4489 21.9599 99.0062 21.1482C98.5635 20.3366 97.9609 19.7094 97.1984 19.2667C96.436 18.824 95.5751 18.6026 94.6159 18.6026C93.6567 18.6026 92.7959 18.824 92.0334 19.2667C91.271 19.7094 90.6561 20.3366 90.1888 21.1482C89.7461 21.9599 89.5247 22.9437 89.5247 24.0997C89.5247 25.231 89.7461 26.2149 90.1888 27.0511C90.6561 27.8627 91.271 28.4899 92.0334 28.9326C92.7959 29.3753 93.6567 29.5967 94.6159 29.5967Z" fill="white"/>
<path d="M121.201 34.319C119.455 34.319 117.955 33.9501 116.7 33.2122C115.446 32.4744 114.487 31.3553 113.823 29.855C113.159 28.3301 112.826 26.4116 112.826 24.0997C112.826 21.7632 113.171 19.8447 113.859 18.3444C114.573 16.8441 115.557 15.725 116.811 14.9872C118.065 14.2493 119.529 13.8804 121.201 13.8804C123.07 13.8804 124.743 14.2985 126.219 15.1348C127.719 15.971 128.899 17.1516 129.76 18.6765C130.646 20.2014 131.088 22.0091 131.088 24.0997C131.088 26.1657 130.646 27.9611 129.76 29.486C128.899 31.0109 127.719 32.2038 126.219 33.0646C124.743 33.9009 123.07 34.319 121.201 34.319ZM109.469 34.0239V6.64941H115.225V18.1969L114.856 24.0628L114.966 29.9656V34.0239H109.469ZM120.205 29.5967C121.164 29.5967 122.013 29.3754 122.751 28.9327C123.513 28.4899 124.116 27.8628 124.558 27.0511C125.026 26.2149 125.259 25.2311 125.259 24.0997C125.259 22.9437 125.026 21.9599 124.558 21.1483C124.116 20.3366 123.513 19.7095 122.751 19.2667C122.013 18.824 121.164 18.6027 120.205 18.6027C119.246 18.6027 118.385 18.824 117.623 19.2667C116.86 19.7095 116.258 20.3366 115.815 21.1483C115.372 21.9599 115.151 22.9437 115.151 24.0997C115.151 25.2311 115.372 26.2149 115.815 27.0511C116.258 27.8628 116.86 28.4899 117.623 28.9327C118.385 29.3754 119.246 29.5967 120.205 29.5967Z" fill="#00FCBB"/>
<path d="M143.648 34.319C141.533 34.319 139.651 33.8763 138.003 32.9909C136.38 32.1054 135.089 30.9003 134.129 29.3754C133.195 27.8259 132.728 26.0673 132.728 24.0997C132.728 22.1075 133.195 20.3489 134.129 18.824C135.089 17.2745 136.38 16.0694 138.003 15.2085C139.651 14.3231 141.533 13.8804 143.648 13.8804C145.738 13.8804 147.608 14.3231 149.255 15.2085C150.903 16.0694 152.195 17.2622 153.129 18.7871C154.064 20.312 154.531 22.0829 154.531 24.0997C154.531 26.0673 154.064 27.8259 153.129 29.3754C152.195 30.9003 150.903 32.1054 149.255 32.9909C147.608 33.8763 145.738 34.319 143.648 34.319ZM143.648 29.5967C144.607 29.5967 145.468 29.3754 146.23 28.9327C146.993 28.4899 147.595 27.8628 148.038 27.0511C148.481 26.2149 148.702 25.2311 148.702 24.0997C148.702 22.9437 148.481 21.9599 148.038 21.1483C147.595 20.3366 146.993 19.7095 146.23 19.2667C145.468 18.824 144.607 18.6027 143.648 18.6027C142.689 18.6027 141.828 18.824 141.065 19.2667C140.303 19.7095 139.688 20.3366 139.221 21.1483C138.778 21.9599 138.557 22.9437 138.557 24.0997C138.557 25.2311 138.778 26.2149 139.221 27.0511C139.688 27.8628 140.303 28.4899 141.065 28.9327C141.828 29.3754 142.689 29.5967 143.648 29.5967Z" fill="#00FCBB"/>
<path d="M165.757 34.319C163.42 34.319 161.6 33.7287 160.297 32.5481C158.993 31.343 158.341 29.5598 158.341 27.1987V9.7853H164.096V27.1249C164.096 27.9611 164.318 28.6129 164.761 29.0802C165.203 29.5229 165.806 29.7443 166.568 29.7443C167.478 29.7443 168.253 29.4983 168.893 29.0064L170.442 33.0646C169.852 33.4828 169.138 33.8025 168.302 34.0239C167.491 34.2206 166.642 34.319 165.757 34.319ZM155.279 19.0454V14.6183H169.04V19.0454H155.279Z" fill="#00FCBB"/>
<defs>
<clipPath id="clip0_35_4">
<rect width="26.5706" height="41.0784" fill="white"/>
</clipPath>
</defs>
</svg>
